<svg width="704" height="72" viewBox="0 0 704 72" fill="none" xmlns="http://www.w3.org/2000/svg">
<g clip-path="url(#clip0_80_32)">
<path d="M2 62.0795V9.71591H20.3068C23.9545 9.71591 26.9631 10.3466 29.3324 11.608C31.7017 12.8523 33.4659 14.5312 34.625 16.6449C35.7841 18.7415 36.3636 21.0682 36.3636 23.625C36.3636 25.875 35.9631 27.733 35.1619 29.1989C34.3778 30.6648 33.3381 31.8239 32.0426 32.6761C30.7642 33.5284 29.375 34.1591 27.875 34.5682V35.0795C29.4773 35.1818 31.0881 35.7443 32.7074 36.767C34.3267 37.7898 35.6818 39.2557 36.7727 41.1648C37.8636 43.0739 38.4091 45.4091 38.4091 48.1705C38.4091 50.7955 37.8125 53.1562 36.6193 55.2528C35.4261 57.3494 33.5426 59.0114 30.9688 60.2386C28.3949 61.4659 25.0455 62.0795 20.9205 62.0795H2ZM8.34091 56.4545H20.9205C25.0625 56.4545 28.0028 55.6534 29.7415 54.0511C31.4972 52.4318 32.375 50.4716 32.375 48.1705C32.375 46.3977 31.9233 44.7614 31.0199 43.2614C30.1165 41.7443 28.8295 40.5341 27.1591 39.6307C25.4886 38.7102 23.5114 38.25 21.2273 38.25H8.34091V56.4545ZM8.34091 32.7273H20.1023C22.0114 32.7273 23.733 32.3523 25.267 31.6023C26.8182 30.8523 28.0455 29.7955 28.9489 28.4318C29.8693 27.0682 30.3295 25.4659 30.3295 23.625C30.3295 21.3239 29.5284 19.3722 27.9261 17.7699C26.3239 16.1506 23.7841 15.3409 20.3068 15.3409H8.34091V32.7273Z" fill="#0B0D13"/>
<path d="M54.5881 62.0795V9.71591H60.929V56.4545H85.2699V62.0795H54.5881Z" fill="#0B0D13"/>
<path d="M135.212 9.71591H141.553V44.3864C141.553 47.9659 140.709 51.1619 139.021 53.9744C137.351 56.7699 134.99 58.9773 131.939 60.5966C128.888 62.1989 125.308 63 121.2 63C117.092 63 113.513 62.1989 110.462 60.5966C107.411 58.9773 105.041 56.7699 103.354 53.9744C101.683 51.1619 100.848 47.9659 100.848 44.3864V9.71591H107.189V43.875C107.189 46.4318 107.752 48.7074 108.877 50.7017C110.002 52.679 111.604 54.2386 113.683 55.3807C115.78 56.5057 118.286 57.0682 121.2 57.0682C124.115 57.0682 126.621 56.5057 128.717 55.3807C130.814 54.2386 132.416 52.679 133.524 50.7017C134.649 48.7074 135.212 46.4318 135.212 43.875V9.71591Z" fill="#0B0D13"/>
<path d="M159.975 62.0795V9.71591H191.578V15.3409H166.316V33.0341H189.941V38.6591H166.316V56.4545H191.987V62.0795H159.975Z" fill="#0B0D13"/>
<path d="M234.777 9.71591H242.345L260.14 53.1818H260.754L278.549 9.71591H286.117V62.0795H280.186V22.2955H279.674L263.311 62.0795H257.583L241.22 22.2955H240.708V62.0795H234.777V9.71591Z" fill="#0B0D13"/>
<path d="M306.739 62.0795H300.091L319.319 9.71591H325.864L345.091 62.0795H338.444L322.796 18H322.387L306.739 62.0795ZM309.194 41.625H335.989V47.25H309.194V41.625Z" fill="#0B0D13"/>
<path d="M392.342 26.0795C391.78 24.358 391.038 22.8153 390.118 21.4517C389.214 20.071 388.132 18.8949 386.87 17.9233C385.626 16.9517 384.211 16.2102 382.626 15.6989C381.041 15.1875 379.302 14.9318 377.41 14.9318C374.308 14.9318 371.487 15.733 368.947 17.3352C366.407 18.9375 364.387 21.2983 362.887 24.4176C361.387 27.5369 360.637 31.3636 360.637 35.8977C360.637 40.4318 361.396 44.2585 362.913 47.3778C364.43 50.4972 366.484 52.858 369.075 54.4602C371.666 56.0625 374.581 56.8636 377.819 56.8636C380.819 56.8636 383.461 56.2244 385.745 54.946C388.047 53.6506 389.836 51.8267 391.115 49.4744C392.41 47.1051 393.058 44.3182 393.058 41.1136L395.001 41.5227H379.251V35.8977H399.194V41.5227C399.194 45.8352 398.274 49.5852 396.433 52.7727C394.609 55.9602 392.086 58.4318 388.865 60.1875C385.66 61.9261 381.978 62.7955 377.819 62.7955C373.183 62.7955 369.109 61.7045 365.598 59.5227C362.103 57.3409 359.376 54.2386 357.416 50.2159C355.473 46.1932 354.501 41.4205 354.501 35.8977C354.501 31.7557 355.055 28.0312 356.163 24.7244C357.288 21.4006 358.873 18.571 360.919 16.2358C362.964 13.9006 365.385 12.1108 368.18 10.8665C370.976 9.62216 374.052 9 377.41 9C380.172 9 382.745 9.41761 385.132 10.2528C387.535 11.071 389.674 12.2386 391.549 13.7557C393.441 15.2557 395.018 17.054 396.28 19.1506C397.541 21.2301 398.41 23.5398 398.887 26.0795H392.342Z" fill="#0B0D13"/>
<path d="M422.155 9.71591V62.0795H415.814V9.71591H422.155Z" fill="#0B0D13"/>
<path d="M482.765 26.0795H476.425C476.05 24.2557 475.393 22.6534 474.456 21.2727C473.535 19.892 472.41 18.733 471.081 17.7955C469.768 16.8409 468.311 16.125 466.709 15.6477C465.106 15.1705 463.436 14.9318 461.697 14.9318C458.527 14.9318 455.655 15.733 453.081 17.3352C450.524 18.9375 448.487 21.2983 446.97 24.4176C445.47 27.5369 444.72 31.3636 444.72 35.8977C444.72 40.4318 445.47 44.2585 446.97 47.3778C448.487 50.4972 450.524 52.858 453.081 54.4602C455.655 56.0625 458.527 56.8636 461.697 56.8636C463.436 56.8636 465.106 56.625 466.709 56.1477C468.311 55.6705 469.768 54.9631 471.081 54.0256C472.41 53.071 473.535 51.9034 474.456 50.5227C475.393 49.125 476.05 47.5227 476.425 45.7159H482.765C482.288 48.392 481.419 50.7869 480.157 52.9006C478.896 55.0142 477.328 56.8125 475.453 58.2955C473.578 59.7614 471.473 60.8778 469.138 61.6449C466.819 62.4119 464.339 62.7955 461.697 62.7955C457.231 62.7955 453.26 61.7045 449.782 59.5227C446.305 57.3409 443.569 54.2386 441.575 50.2159C439.581 46.1932 438.584 41.4205 438.584 35.8977C438.584 30.375 439.581 25.6023 441.575 21.5795C443.569 17.5568 446.305 14.4545 449.782 12.2727C453.26 10.0909 457.231 9 461.697 9C464.339 9 466.819 9.38352 469.138 10.1506C471.473 10.9176 473.578 12.0426 475.453 13.5256C477.328 14.9915 478.896 16.7812 480.157 18.8949C481.419 20.9915 482.288 23.3864 482.765 26.0795Z" fill="#0B0D13"/>
<rect x="512.765" y="2" width="5" height="68" transform="rotate(11 512.765 2)" fill="#0B0D13"/>
<path d="M537.765 57.733V14.0966H543.049V53.0455H563.334V57.733H537.765Z" fill="#0B0D13"/>
<path d="M582.059 57.733H576.519L592.542 14.0966H597.997L614.019 57.733H608.48L595.44 21H595.099L582.059 57.733ZM584.105 40.6875H606.434V45.375H584.105V40.6875Z" fill="#0B0D13"/>
<path d="M626.816 57.733V14.0966H642.072C645.112 14.0966 647.619 14.6222 649.593 15.6733C651.568 16.7102 653.038 18.1094 654.004 19.8707C654.97 21.6179 655.453 23.5568 655.453 25.6875C655.453 27.5625 655.119 29.1108 654.451 30.3324C653.798 31.554 652.931 32.5199 651.852 33.2301C650.786 33.9403 649.629 34.4659 648.379 34.8068V35.233C649.714 35.3182 651.056 35.7869 652.406 36.6392C653.755 37.4915 654.884 38.7131 655.793 40.304C656.703 41.8949 657.157 43.8409 657.157 46.142C657.157 48.3295 656.66 50.2969 655.666 52.044C654.671 53.7912 653.102 55.1761 650.957 56.1989C648.812 57.2216 646.021 57.733 642.583 57.733H626.816ZM632.1 53.0455H642.583C646.035 53.0455 648.485 52.3778 649.934 51.0426C651.397 49.6932 652.129 48.0597 652.129 46.142C652.129 44.6648 651.752 43.3011 650.999 42.0511C650.247 40.7869 649.174 39.7784 647.782 39.0256C646.39 38.2585 644.742 37.875 642.839 37.875H632.1V53.0455ZM632.1 33.2727H641.901C643.492 33.2727 644.927 32.9602 646.205 32.3352C647.498 31.7102 648.521 30.8295 649.274 29.6932C650.041 28.5568 650.424 27.2216 650.424 25.6875C650.424 23.7699 649.757 22.1435 648.421 20.8082C647.086 19.4588 644.97 18.7841 642.072 18.7841H632.1V33.2727Z" fill="#0B0D13"/>
<path d="M695.703 25.0057C695.448 22.8466 694.411 21.1705 692.592 19.9773C690.774 18.7841 688.544 18.1875 685.902 18.1875C683.97 18.1875 682.28 18.5 680.831 19.125C679.396 19.75 678.274 20.6094 677.465 21.7031C676.669 22.7969 676.271 24.0398 676.271 25.4318C676.271 26.5966 676.548 27.598 677.102 28.4361C677.671 29.2599 678.395 29.9489 679.276 30.5028C680.156 31.0426 681.08 31.4901 682.046 31.8452C683.011 32.1861 683.899 32.4631 684.709 32.6761L689.141 33.8693C690.277 34.1676 691.541 34.5795 692.933 35.1051C694.34 35.6307 695.682 36.348 696.96 37.2571C698.253 38.152 699.318 39.3026 700.156 40.7088C700.994 42.1151 701.413 43.8409 701.413 45.8864C701.413 48.2443 700.796 50.375 699.56 52.2784C698.338 54.1818 696.548 55.6946 694.19 56.8168C691.847 57.9389 688.999 58.5 685.646 58.5C682.521 58.5 679.815 57.9957 677.529 56.9872C675.256 55.9787 673.466 54.5724 672.159 52.7685C670.867 50.9645 670.135 48.8693 669.965 46.483H675.419C675.561 48.1307 676.115 49.4943 677.081 50.5739C678.061 51.6392 679.297 52.4347 680.788 52.9602C682.294 53.4716 683.913 53.7273 685.646 53.7273C687.663 53.7273 689.475 53.4006 691.08 52.7472C692.685 52.0795 693.956 51.1562 694.894 49.9773C695.831 48.7841 696.3 47.392 696.3 45.8011C696.3 44.3523 695.895 43.1733 695.085 42.2642C694.276 41.3551 693.21 40.6165 691.889 40.0483C690.568 39.4801 689.141 38.983 687.607 38.5568L682.237 37.0227C678.828 36.0426 676.129 34.6435 674.141 32.8253C672.152 31.0071 671.158 28.6278 671.158 25.6875C671.158 23.2443 671.818 21.1136 673.139 19.2955C674.475 17.4631 676.264 16.0426 678.509 15.0341C680.767 14.0114 683.288 13.5 686.073 13.5C688.885 13.5 691.385 14.0043 693.573 15.0128C695.76 16.0071 697.493 17.3707 698.771 19.1037C700.064 20.8366 700.746 22.804 700.817 25.0057H695.703Z" fill="#0B0D13"/>
</g>
<defs>
<clipPath id="clip0_80_32">
<rect width="704" height="72" fill="white"/>
</clipPath>
</defs>
</svg>
