<svg width="118" height="62" viewBox="0 0 118 62" fill="none" xmlns="http://www.w3.org/2000/svg">
<g clip-path="url(#clip0_80_75)">
<g clip-path="url(#clip1_80_75)">
<path d="M2 52.9999V9.36353H17.2557C20.2955 9.36353 22.8026 9.88909 24.777 10.9402C26.7514 11.9772 28.2216 13.3763 29.1875 15.1377C30.1534 16.8848 30.6364 18.8238 30.6364 20.9544C30.6364 22.8294 30.3026 24.3777 29.6349 25.5993C28.9815 26.8209 28.1151 27.7868 27.0355 28.497C25.9702 29.2073 24.8125 29.7328 23.5625 30.0738V30.4999C24.8977 30.5851 26.2401 31.0539 27.5895 31.9061C28.9389 32.7584 30.0682 33.98 30.9773 35.5709C31.8864 37.1618 32.3409 39.1078 32.3409 41.409C32.3409 43.5965 31.8438 45.5638 30.8494 47.311C29.8551 49.0581 28.2855 50.4431 26.1406 51.4658C23.9957 52.4885 21.2045 52.9999 17.767 52.9999H2ZM7.28409 48.3124H17.767C21.2188 48.3124 23.669 47.6448 25.1179 46.3095C26.581 44.9601 27.3125 43.3266 27.3125 41.409C27.3125 39.9317 26.9361 38.5681 26.1832 37.3181C25.4304 36.0539 24.358 35.0453 22.9659 34.2925C21.5739 33.5255 19.9261 33.1419 18.0227 33.1419H7.28409V48.3124ZM7.28409 28.5397H17.0852C18.6761 28.5397 20.1108 28.2272 21.3892 27.6022C22.6818 26.9772 23.7045 26.0965 24.4574 24.9601C25.2244 23.8238 25.608 22.4885 25.608 20.9544C25.608 19.0368 24.9403 17.4104 23.6051 16.0752C22.2699 14.7257 20.1534 14.051 17.2557 14.051H7.28409V28.5397Z" fill="#0B0D13"/>
<path d="M44.0234 9.36353H50.3303L65.1598 45.5851H65.6712L80.5007 9.36353H86.8075V52.9999H81.8643V19.8465H81.4382L67.8018 52.9999H63.0291L49.3928 19.8465H48.9666V52.9999H44.0234V9.36353Z" fill="#0B0D13"/>
<rect x="110.203" y="2" width="5" height="58" transform="rotate(11 110.203 2)" fill="#203CFF"/>
</g>
</g>
<defs>
<clipPath id="clip0_80_75">
<rect width="118" height="62" fill="white"/>
</clipPath>
<clipPath id="clip1_80_75">
<rect width="128" height="128" fill="white" transform="translate(-5.29655 -33)"/>
</clipPath>
</defs>
</svg>
