<svg width="238" height="27" viewBox="0 0 238 27" fill="none" xmlns="http://www.w3.org/2000/svg">
<g clip-path="url(#clip0_79_17)">
<path d="M2 22.1932V4.73864H8.10227C9.31818 4.73864 10.321 4.94886 11.1108 5.36932C11.9006 5.78409 12.4886 6.34375 12.875 7.0483C13.2614 7.74716 13.4545 8.52273 13.4545 9.375C13.4545 10.125 13.321 10.7443 13.054 11.233C12.7926 11.7216 12.446 12.108 12.0142 12.392C11.5881 12.6761 11.125 12.8864 10.625 13.0227V13.1932C11.1591 13.2273 11.696 13.4148 12.2358 13.7557C12.7756 14.0966 13.2273 14.5852 13.5909 15.2216C13.9545 15.858 14.1364 16.6364 14.1364 17.5568C14.1364 18.4318 13.9375 19.2188 13.5398 19.9176C13.142 20.6165 12.5142 21.1705 11.6562 21.5795C10.7983 21.9886 9.68182 22.1932 8.30682 22.1932H2ZM4.11364 20.3182H8.30682C9.6875 20.3182 10.6676 20.0511 11.2472 19.517C11.8324 18.9773 12.125 18.3239 12.125 17.5568C12.125 16.9659 11.9744 16.4205 11.6733 15.9205C11.3722 15.4148 10.9432 15.0114 10.3864 14.7102C9.82955 14.4034 9.17045 14.25 8.40909 14.25H4.11364V20.3182ZM4.11364 12.4091H8.03409C8.67045 12.4091 9.24432 12.2841 9.75568 12.0341C10.2727 11.7841 10.6818 11.4318 10.983 10.9773C11.2898 10.5227 11.4432 9.98864 11.4432 9.375C11.4432 8.60795 11.1761 7.95739 10.642 7.4233C10.108 6.88352 9.26136 6.61364 8.10227 6.61364H4.11364V12.4091Z" fill="#0B0D13"/>
<path d="M19.5294 22.1932V4.73864H21.643V20.3182H29.7566V22.1932H19.5294Z" fill="#0B0D13"/>
<path d="M46.4039 4.73864H48.5176V16.2955C48.5176 17.4886 48.2363 18.554 47.6738 19.4915C47.117 20.4233 46.3301 21.1591 45.313 21.6989C44.296 22.233 43.1028 22.5 41.7335 22.5C40.3641 22.5 39.171 22.233 38.1539 21.6989C37.1369 21.1591 36.3471 20.4233 35.7846 19.4915C35.2278 18.554 34.9494 17.4886 34.9494 16.2955V4.73864H37.063V16.125C37.063 16.9773 37.2505 17.7358 37.6255 18.4006C38.0005 19.0597 38.5346 19.5795 39.2278 19.9602C39.9266 20.3352 40.7619 20.5227 41.7335 20.5227C42.7051 20.5227 43.5403 20.3352 44.2391 19.9602C44.938 19.5795 45.4721 19.0597 45.8414 18.4006C46.2164 17.7358 46.4039 16.9773 46.4039 16.125V4.73864Z" fill="#0B0D13"/>
<path d="M54.6584 22.1932V4.73864H65.1925V6.61364H56.7721V12.5114H64.6471V14.3864H56.7721V20.3182H65.3289V22.1932H54.6584Z" fill="#0B0D13"/>
<path d="M79.5922 4.73864H82.1149L88.0467 19.2273H88.2513L94.1831 4.73864H96.7058V22.1932H94.7285V8.93182H94.5581L89.1035 22.1932H87.1945L81.7399 8.93182H81.5695V22.1932H79.5922V4.73864Z" fill="#0B0D13"/>
<path d="M103.58 22.1932H101.364L107.773 4.73864H109.955L116.364 22.1932H114.148L108.932 7.5H108.796L103.58 22.1932ZM104.398 15.375H113.33V17.25H104.398V15.375Z" fill="#0B0D13"/>
<path d="M132.114 10.1932C131.927 9.61932 131.679 9.10511 131.373 8.65057C131.071 8.19034 130.711 7.7983 130.29 7.47443C129.875 7.15057 129.404 6.90341 128.875 6.73295C128.347 6.5625 127.767 6.47727 127.137 6.47727C126.103 6.47727 125.162 6.74432 124.316 7.27841C123.469 7.8125 122.796 8.59943 122.296 9.63921C121.796 10.679 121.546 11.9545 121.546 13.4659C121.546 14.9773 121.799 16.2528 122.304 17.2926C122.81 18.3324 123.495 19.1193 124.358 19.6534C125.222 20.1875 126.194 20.4545 127.273 20.4545C128.273 20.4545 129.154 20.2415 129.915 19.8153C130.682 19.3835 131.279 18.7756 131.705 17.9915C132.137 17.2017 132.353 16.2727 132.353 15.2045L133 15.3409H127.75V13.4659H134.398V15.3409C134.398 16.7784 134.091 18.0284 133.478 19.0909C132.87 20.1534 132.029 20.9773 130.955 21.5625C129.887 22.142 128.659 22.4318 127.273 22.4318C125.728 22.4318 124.37 22.0682 123.199 21.3409C122.034 20.6136 121.125 19.5795 120.472 18.2386C119.824 16.8977 119.5 15.3068 119.5 13.4659C119.5 12.0852 119.685 10.8438 120.054 9.74148C120.429 8.63352 120.958 7.69034 121.64 6.91193C122.321 6.13352 123.128 5.53693 124.06 5.12216C124.992 4.70739 126.017 4.5 127.137 4.5C128.057 4.5 128.915 4.6392 129.711 4.91761C130.512 5.19034 131.225 5.57955 131.85 6.08523C132.48 6.58523 133.006 7.18466 133.427 7.88352C133.847 8.5767 134.137 9.34659 134.296 10.1932H132.114Z" fill="#0B0D13"/>
<path d="M142.052 4.73864V22.1932H139.938V4.73864H142.052Z" fill="#0B0D13"/>
<path d="M162.255 10.1932H160.142C160.017 9.58523 159.798 9.05114 159.485 8.59091C159.178 8.13068 158.803 7.74432 158.36 7.43182C157.923 7.11364 157.437 6.875 156.903 6.71591C156.369 6.55682 155.812 6.47727 155.232 6.47727C154.176 6.47727 153.218 6.74432 152.36 7.27841C151.508 7.8125 150.829 8.59943 150.323 9.63921C149.823 10.679 149.573 11.9545 149.573 13.4659C149.573 14.9773 149.823 16.2528 150.323 17.2926C150.829 18.3324 151.508 19.1193 152.36 19.6534C153.218 20.1875 154.176 20.4545 155.232 20.4545C155.812 20.4545 156.369 20.375 156.903 20.2159C157.437 20.0568 157.923 19.821 158.36 19.5085C158.803 19.1903 159.178 18.8011 159.485 18.3409C159.798 17.875 160.017 17.3409 160.142 16.7386H162.255C162.096 17.6307 161.806 18.429 161.386 19.1335C160.965 19.8381 160.443 20.4375 159.818 20.9318C159.193 21.4205 158.491 21.7926 157.713 22.0483C156.94 22.304 156.113 22.4318 155.232 22.4318C153.744 22.4318 152.42 22.0682 151.261 21.3409C150.102 20.6136 149.19 19.5795 148.525 18.2386C147.86 16.8977 147.528 15.3068 147.528 13.4659C147.528 11.625 147.86 10.0341 148.525 8.69318C149.19 7.35227 150.102 6.31818 151.261 5.59091C152.42 4.86364 153.744 4.5 155.232 4.5C156.113 4.5 156.94 4.62784 157.713 4.88352C158.491 5.1392 159.193 5.5142 159.818 6.00852C160.443 6.49716 160.965 7.09375 161.386 7.7983C161.806 8.49716 162.096 9.29545 162.255 10.1932Z" fill="#0B0D13"/>
<rect x="172.585" y="2" width="2" height="23" transform="rotate(11 172.585 2)" fill="#203CFF"/>
<path d="M180.915 20.7443V6.19886H182.677V19.1818H189.438V20.7443H180.915Z" fill="#0B0D13"/>
<path d="M195.68 20.7443H193.833L199.174 6.19886H200.992L206.333 20.7443H204.487L200.14 8.5H200.026L195.68 20.7443ZM196.362 15.0625H203.805V16.625H196.362V15.0625Z" fill="#0B0D13"/>
<path d="M210.599 20.7443V6.19886H215.684C216.697 6.19886 217.533 6.37405 218.191 6.72443C218.849 7.07008 219.339 7.53646 219.661 8.12358C219.983 8.70597 220.144 9.35227 220.144 10.0625C220.144 10.6875 220.033 11.2036 219.81 11.6108C219.593 12.018 219.304 12.34 218.944 12.5767C218.589 12.8134 218.203 12.9886 217.786 13.1023V13.2443C218.231 13.2727 218.679 13.429 219.129 13.7131C219.578 13.9972 219.955 14.4044 220.258 14.9347C220.561 15.465 220.712 16.1136 220.712 16.8807C220.712 17.6098 220.547 18.2656 220.215 18.848C219.884 19.4304 219.361 19.892 218.646 20.233C217.931 20.5739 217 20.7443 215.854 20.7443H210.599ZM212.36 19.1818H215.854C217.005 19.1818 217.822 18.9593 218.305 18.5142C218.792 18.0644 219.036 17.5199 219.036 16.8807C219.036 16.3883 218.911 15.9337 218.66 15.517C218.409 15.0956 218.051 14.7595 217.587 14.5085C217.123 14.2528 216.574 14.125 215.94 14.125H212.36V19.1818ZM212.36 12.5909H215.627C216.157 12.5909 216.636 12.4867 217.062 12.2784C217.493 12.0701 217.834 11.7765 218.085 11.3977C218.34 11.0189 218.468 10.5739 218.468 10.0625C218.468 9.4233 218.246 8.88116 217.8 8.43608C217.355 7.98627 216.65 7.76136 215.684 7.76136H212.36V12.5909Z" fill="#0B0D13"/>
<path d="M233.561 9.83523C233.476 9.11553 233.13 8.55682 232.524 8.15909C231.918 7.76136 231.175 7.5625 230.294 7.5625C229.65 7.5625 229.087 7.66667 228.604 7.875C228.126 8.08333 227.751 8.36979 227.482 8.73438C227.216 9.09896 227.084 9.51326 227.084 9.97727C227.084 10.3655 227.176 10.6993 227.361 10.9787C227.55 11.2533 227.792 11.483 228.085 11.6676C228.379 11.8475 228.687 11.9967 229.009 12.1151C229.331 12.2287 229.626 12.321 229.896 12.392L231.374 12.7898C231.752 12.8892 232.174 13.0265 232.638 13.2017C233.107 13.3769 233.554 13.616 233.98 13.919C234.411 14.2173 234.766 14.6009 235.045 15.0696C235.325 15.5384 235.465 16.1136 235.465 16.7955C235.465 17.5814 235.259 18.2917 234.847 18.9261C234.439 19.5606 233.843 20.0649 233.057 20.4389C232.276 20.813 231.326 21 230.209 21C229.167 21 228.265 20.8319 227.503 20.4957C226.745 20.1596 226.149 19.6908 225.713 19.0895C225.282 18.4882 225.038 17.7898 224.982 16.9943H226.8C226.847 17.5436 227.032 17.9981 227.354 18.358C227.68 18.7131 228.092 18.9782 228.59 19.1534C229.091 19.3239 229.631 19.4091 230.209 19.4091C230.881 19.4091 231.485 19.3002 232.02 19.0824C232.555 18.8598 232.979 18.5521 233.291 18.1591C233.604 17.7614 233.76 17.2973 233.76 16.767C233.76 16.2841 233.625 15.8911 233.355 15.5881C233.085 15.285 232.73 15.0388 232.29 14.8494C231.849 14.66 231.374 14.4943 230.862 14.3523L229.072 13.8409C227.936 13.5142 227.036 13.0478 226.374 12.4418C225.711 11.8357 225.379 11.0426 225.379 10.0625C225.379 9.24811 225.599 8.53788 226.04 7.93182C226.485 7.32102 227.081 6.84754 227.83 6.51136C228.582 6.17045 229.423 6 230.351 6C231.288 6 232.122 6.16809 232.851 6.50426C233.58 6.8357 234.158 7.29025 234.584 7.8679C235.015 8.44555 235.242 9.10133 235.266 9.83523H233.561Z" fill="#0B0D13"/>
</g>
<defs>
<clipPath id="clip0_79_17">
<rect width="238" height="27" fill="white"/>
</clipPath>
</defs>
</svg>
